<svg width="57" height="80" viewBox="0 0 57 80" fill="none" xmlns="http://www.w3.org/2000/svg">
<path d="M54.3607 44.5148H52.2097V41.4594C52.2097 40.4868 51.4212 39.6982 50.4486 39.6982H36.1099C35.1371 39.6982 34.3488 40.4868 34.3488 41.4594V44.5148H32.1977C31.225 44.5148 30.4365 45.3033 30.4365 46.276V73.8806C30.4365 77.255 33.1818 80 36.5561 80H50.0027C53.3768 80 56.122 77.255 56.122 73.8806V46.276C56.1218 45.3033 55.3333 44.5148 54.3607 44.5148ZM37.8711 43.2207H48.6875V44.5151H37.8711V43.2207ZM52.5995 73.8806C52.5995 75.3128 51.4346 76.4777 50.0025 76.4777H36.5559C35.1237 76.4777 33.9585 75.3128 33.9585 73.8806V48.0371H52.5993V73.8806H52.5995Z" fill="#000F08"/>
<path d="M24.3636 48.6758H22.2127V22.744C22.2127 21.7713 21.4242 20.9828 20.4515 20.9828H20.2219V8.19443C20.2219 8.11975 20.2167 6.3436 19.7553 4.54114C18.7439 0.590097 16.4472 0 15.1679 0C13.5592 0 11.826 1.44765 9.37168 4.84076C7.85311 6.94027 6.63652 9.00549 6.58533 9.09237C6.42636 9.36288 6.34277 9.67072 6.34277 9.98444V20.9826H6.11335C5.1405 20.9826 4.35222 21.7711 4.35222 22.7437V48.6756H2.20058C1.22797 48.6756 0.439453 49.4641 0.439453 50.4367V73.8802C0.439453 77.2545 3.18447 79.9995 6.55903 79.9995H20.0054C23.3797 79.9995 26.125 77.2545 26.125 73.8802V50.4367C26.1247 49.4643 25.3362 48.6758 24.3636 48.6758ZM9.86479 10.4684C11.8732 7.12789 14.301 4.0088 15.2679 3.53353C16.1246 3.7289 16.694 6.40488 16.6999 8.19443V20.9828H9.86479V10.4684ZM7.87401 24.5051H18.6904V48.6758H7.87401V24.5051ZM22.6025 73.8806C22.6025 75.3128 21.4373 76.4777 20.0052 76.4777H6.5588C5.12665 76.4777 3.96148 75.3128 3.96148 73.8806V52.1983H22.6022V73.8806H22.6025Z" fill="#000F08"/>
</svg>
