<svg width="36" height="80" viewBox="0 0 36 80" fill="none" xmlns="http://www.w3.org/2000/svg">
<path d="M33.1205 5.26148V0.956181C33.1205 0.428178 32.6923 0 32.1643 0H3.71357C3.18556 0 2.75739 0.428178 2.75739 0.956181V5.26244C2.47742 6.48577 0.171875 17.0676 0.171875 33.3613V79.0438C0.171875 79.5716 0.600053 80 1.12806 80H15.64C16.1682 80 16.5962 79.5716 16.5962 79.0438C16.5962 78.717 16.6147 51.5399 17.9392 33.9234C19.2635 51.5399 19.2819 78.717 19.2819 79.0438C19.2819 79.5716 19.7101 80 20.2381 80H34.7504C35.2784 80 35.7066 79.5716 35.7066 79.0438V33.3611C35.7064 17.064 33.3995 6.48099 33.1205 5.26148ZM4.66975 1.91236H10.0079V4.41182H4.66975V1.91236ZM4.48291 6.32418H7.85727V8.87259C7.85727 8.98676 7.83509 9.11412 7.67349 9.27285C7.14014 9.79664 5.66494 10.1439 3.77878 10.2158C4.06812 8.39087 4.32571 7.0744 4.48291 6.32418ZM14.6859 78.0876H2.08424V75.7563H14.6972C14.6911 76.7385 14.6877 77.5292 14.6859 78.0876ZM16.9829 24.6823C15.2107 36.4377 14.8043 62.6709 14.7114 73.8437H5.85178L5.84987 73.6443C5.84489 73.1195 5.41767 72.6971 4.89388 72.6971H4.8847C4.3565 72.7022 3.93253 73.1344 3.93751 73.6622L3.93922 73.8437H2.08424V33.3611C2.08424 24.2457 2.81189 16.9588 3.49116 12.1399C3.79293 12.1343 4.10178 12.1215 4.41273 12.1014C4.42745 13.1352 5.34213 13.1289 5.36699 13.1289C5.86153 13.1289 6.28053 12.748 6.31935 12.2468C6.32987 12.1096 6.34077 11.9786 6.35167 11.8513C7.42259 11.6281 8.38757 11.2523 9.01406 10.6369C9.50859 10.151 9.77001 9.54096 9.77001 8.87259V6.32418H16.9833V24.6823H16.9829ZM16.9829 4.41182H11.9203V1.91236H16.9829V4.41182ZM32.0997 10.2162C30.2128 10.1441 28.7378 9.79703 28.2044 9.27285C28.0428 9.11412 28.0206 8.98695 28.0206 8.87278V6.32418H31.3954C31.5524 7.0744 31.8102 8.39106 32.0997 10.2162ZM25.8702 1.91236H31.2082V4.41182H25.8702V1.91236ZM18.8952 1.91236H23.958V4.41182H18.8952V1.91236ZM18.8952 6.32418H20.4966V13.9293C20.4966 15.402 20.1612 16.4811 19.5267 17.0497C19.3211 17.234 19.1012 17.3501 18.8952 17.4245V6.32418ZM33.7941 78.0876H21.1922C21.1903 77.5292 21.187 76.7385 21.1805 75.7563H33.7941V78.0876ZM33.7941 73.8437H31.9389L31.9406 73.6622C31.9456 73.1344 31.5216 72.7022 30.9934 72.6971H30.9844C30.4604 72.6971 30.0332 73.1195 30.0282 73.6443L30.0263 73.8437H21.1665C21.0736 62.6706 20.6672 36.4377 18.8952 24.6823V19.3986C19.4475 19.2999 20.1318 19.0601 20.7651 18.5075C21.8559 17.5553 22.409 16.0153 22.409 13.9294V6.32418H26.1083V8.87259C26.1083 9.54077 26.3697 10.151 26.8642 10.6369C27.4909 11.2529 28.4568 11.6287 29.5287 11.8517C29.5391 11.972 29.5492 12.0947 29.5591 12.2232C29.5978 12.7245 30.0168 13.1054 30.5111 13.1054C30.7435 13.1054 31.455 13.0331 31.4648 12.1014C31.7759 12.1215 32.0852 12.1343 32.3871 12.1399C33.0664 16.9586 33.7939 24.2457 33.7939 33.3611V73.8437H33.7941Z" fill="#000F08"/>
</svg>
