<svg width="51" height="80" viewBox="0 0 51 80" fill="none" xmlns="http://www.w3.org/2000/svg">
<path d="M8.845 40.4373L0.570312 80H50.8576L42.5829 40.4373C42.4452 39.7796 42.2532 39.129 42.012 38.5036L37.9521 27.9727L39.3597 18.1453L42.9248 18.4917L44.9797 9.63849C45.4277 7.70894 45.056 5.65605 43.9603 4.00608C42.8648 2.35612 41.1169 1.21722 39.165 0.881104L34.0473 0L33.4573 1.60844C32.271 4.84176 29.1593 7.01389 25.7139 7.01389C22.2684 7.01389 19.1568 4.84176 17.9704 1.60844L17.3804 0L12.2629 0.880693C10.311 1.21681 8.56316 2.35571 7.46764 4.00567C6.37191 5.65564 6.00023 7.70874 6.44818 9.63808L8.50313 18.4913L12.0683 18.1449L13.4758 27.9723L9.4161 38.503C9.17475 39.129 8.98274 39.7796 8.845 40.4373ZM11.6933 14.0508L10.4534 8.70887C10.2575 7.86477 10.4136 7.00217 10.893 6.28039C11.3724 5.5586 12.1065 5.08002 12.9607 4.93303L14.8246 4.61192C16.954 8.56764 21.1377 11.1256 25.7141 11.1256C30.2904 11.1256 34.4739 8.56785 36.6035 4.61192L38.4675 4.93303C39.3214 5.08002 40.0558 5.5584 40.5352 6.28039C41.0146 7.00237 41.1706 7.86477 40.9747 8.70887L39.7348 14.0508L35.847 13.6732L34.3265 24.2888H17.1022L15.5818 13.6732L11.6933 14.0508ZM13.2524 39.9825L16.8457 30.6614H34.5818L38.1753 39.9825C38.3369 40.4019 38.4658 40.8383 38.5581 41.2793L45.7969 75.8887H5.6306L12.8694 41.2797C12.9617 40.8383 13.0906 40.4019 13.2524 39.9825Z" fill="#000F08"/>
</svg>
