<svg width="47" height="80" viewBox="0 0 47 80" fill="none" xmlns="http://www.w3.org/2000/svg">
<path d="M43.0212 47.7804C41.5016 44.4686 39.8209 41.5556 38.9543 40.1144C40.1215 37.6287 43.1253 31.1834 44.0955 28.6332C45.8972 23.8974 42.779 11.8897 42.1356 9.53057L41.5026 7.2099L41.3996 7.25899V0H37.3755V9.17283L26.8719 14.1683C24.5844 15.2564 21.9606 15.2562 19.6731 14.1683L9.20692 9.19054V0H5.18286V7.2767L5.04243 7.2099L4.40944 9.53057C3.76599 11.8897 0.647555 23.8974 2.44932 28.633C3.41993 31.1844 6.4261 37.6344 7.59207 40.1176C6.73293 41.5556 5.06677 44.4616 3.55735 47.7687C0.506108 54.4537 -0.285423 59.1518 1.13708 62.132C2.82517 65.6679 9.67029 68.9079 11.9656 69.9137C13.1312 71.3982 17.2234 76.6329 18.9429 79.1292L19.5425 80H26.9228L27.5198 79.1002C29.2258 76.5288 33.3951 71.1453 34.6027 69.5944C36.929 68.6457 43.6951 65.641 45.4142 62.1553C46.8793 59.1848 46.0966 54.4827 43.0212 47.7804ZM23.2913 19.8796C25.5102 19.8796 27.3154 21.6848 27.3154 23.9037C27.3154 26.1225 25.5102 27.9277 23.2913 27.9277C21.0724 27.9277 19.2673 26.1225 19.2673 23.9037C19.2673 21.6848 21.0724 19.8796 23.2913 19.8796ZM41.8054 60.3753C40.9344 62.1414 35.8093 64.8076 32.6207 66.0532L32.1074 66.2534L31.7678 66.687C31.563 66.9484 27.1367 72.6032 24.7814 75.976H21.6435C19.3113 72.7287 15.0098 67.2739 14.811 67.0216L14.4899 66.6152L14.0134 66.414C10.7946 65.0551 5.63074 62.2034 4.76919 60.3984C3.2151 57.1428 7.81419 47.2786 11.5761 41.3146L12.1664 40.3796L11.6936 39.38C11.6501 39.2882 7.34358 30.1786 6.21121 27.2022C5.32109 24.8628 6.49088 17.9795 7.69709 12.9281L17.9456 17.8022C17.9689 17.8133 17.993 17.8225 18.0164 17.8336C16.3196 19.3102 15.2438 21.483 15.2438 23.9037C15.2438 28.3414 18.8542 31.9518 23.2919 31.9518C27.7296 31.9518 31.34 28.3414 31.34 23.9037C31.34 21.477 30.259 19.2994 28.5548 17.8225C28.5701 17.8153 28.5856 17.8095 28.6008 17.8022L38.8493 12.9281C40.0555 17.9793 41.2253 24.8626 40.335 27.2022C39.2028 30.1784 34.8961 39.2882 34.8526 39.38L34.3782 40.383L34.9733 41.3196C34.9969 41.3568 37.3592 45.0885 39.3644 49.4586C42.7679 56.8776 42.2052 59.5644 41.8054 60.3753Z" fill="#000F08"/>
</svg>
