<svg width="88" height="80" viewBox="0 0 88 80" fill="none" xmlns="http://www.w3.org/2000/svg">
<path d="M87.1347 30.6069L79.8838 11.8796C78.6475 8.68576 75.9392 6.23244 72.639 5.3163L53.4884 0.000272593V10.7875C53.4884 16.0553 49.2028 20.3409 43.935 20.3409C38.6673 20.3409 34.3816 16.0553 34.3816 10.7875V0L15.231 5.3163C11.9309 6.23244 9.22279 8.68576 7.98618 11.8796L0.735593 30.6066C-0.562661 33.9592 -0.124364 37.7312 1.90729 40.697C3.93923 43.6628 7.29887 45.4334 10.8939 45.4334H16.4674L12.9337 80H75.0915L71.4569 45.4337H76.9764C80.5717 45.4337 83.931 43.6631 85.963 40.6973C87.9949 37.7312 88.4329 33.9592 87.1347 30.6069ZM81.463 37.6142C80.4334 39.117 78.798 39.9789 76.9764 39.9789H71.7717L70.5176 24.558H63.7767L69.0328 74.5452H18.9744L24.0845 24.558H17.3287L16.2208 39.9789H10.8939C9.07224 39.9789 7.43688 39.117 6.40727 37.6142C5.37794 36.1114 5.16439 34.2753 5.82224 32.5764L13.0731 13.849C13.6906 12.2546 15.0428 11.0297 16.6902 10.5723L28.9268 7.17558V10.7872C28.9268 19.0628 35.6597 25.7954 43.935 25.7954C52.2103 25.7954 58.9432 19.0625 58.9432 10.7872V7.17558L71.1798 10.5723C72.8272 11.0297 74.1794 12.2546 74.7969 13.849L82.0478 32.5766C82.7059 34.275 82.4926 36.1114 81.463 37.6142Z" fill="#000F08"/>
</svg>
