<svg width="57" height="80" viewBox="0 0 57 80" fill="none" xmlns="http://www.w3.org/2000/svg">
<path d="M56.531 72.2194C52.6835 62.4783 44.9864 50.3839 43.6017 48.2402L45.623 33.2345C49.0959 29.4659 48.3336 23.8167 48.017 22.1685L49.8568 19.2729C49.9316 19.1547 49.9826 19.0231 50.0063 18.8855L52.4073 4.96039C52.5012 4.41543 52.1595 3.88993 51.6232 3.75522C46.8765 2.56232 41.9753 0.135496 41.9265 0.111177C41.4067 -0.147662 40.775 0.0610585 40.5122 0.579159C37.8478 5.82868 28.5468 5.6151 28.4529 5.6115C28.4408 5.61108 28.4296 5.61404 28.4176 5.61404C28.4076 5.61383 28.3983 5.61129 28.3884 5.6115C28.2949 5.61404 18.9934 5.82868 16.3291 0.579159C16.0663 0.0610585 15.4344 -0.147874 14.9148 0.111177C14.866 0.135496 9.97212 2.56063 5.21828 3.75522C4.68199 3.89014 4.34005 4.41543 4.43394 4.96039L6.83476 18.8855C6.85844 19.0231 6.9094 19.1547 6.98426 19.2729L8.82892 22.1761C8.53603 23.8214 7.82528 29.5376 11.2183 33.2339L13.2395 48.2402C11.855 50.3841 4.15797 62.4785 0.31028 72.2194C0.184879 72.5368 0.220405 72.8953 0.405864 73.182C0.638058 73.5411 2.70158 76.3938 9.60649 76.3938C9.93363 76.3938 10.2739 76.386 10.6234 76.3725C10.5084 76.8419 10.3953 77.2966 10.2845 77.7328C10.1476 78.2717 10.4515 78.8244 10.98 78.9976C11.1642 79.0581 14.0971 80 17.5939 80C19.4227 79.9998 21.4063 79.742 23.2306 78.9657C23.6261 78.7974 23.8771 78.407 23.8718 77.9798H32.9695C32.9642 78.4072 33.2152 78.7974 33.6106 78.9657C35.4352 79.7422 37.4184 80 39.2474 80C42.7438 80 45.6769 79.0581 45.8613 78.9976C46.3897 78.8244 46.6936 78.2714 46.5568 77.7328C46.4462 77.2968 46.3329 76.8423 46.2178 76.3729C46.5676 76.3866 46.9074 76.3938 47.235 76.3938C54.1388 76.3936 56.2034 73.5413 56.4356 73.182C56.6209 72.8953 56.6564 72.5368 56.531 72.2194ZM12.968 32.004C10.4716 29.5076 10.5623 25.4249 10.7916 23.4088L12.0631 23.8823C12.1847 23.9275 12.3095 23.9489 12.4321 23.9489C12.861 23.9489 13.2647 23.686 13.4231 23.2603C13.627 22.7131 13.3484 22.1042 12.8014 21.9004L10.6505 21.0993L8.88263 18.3172L6.68229 5.55356C10.1396 4.58397 13.4349 3.14027 14.9681 2.42867C18.6263 7.86239 27.7015 7.74481 28.4218 7.72578C29.1545 7.74418 38.2183 7.85816 41.8736 2.42867C43.4067 3.14027 46.7021 4.58397 50.1596 5.55356L47.9586 18.3172L46.191 21.0993L44.0403 21.9004C43.493 22.1042 43.2147 22.7131 43.4186 23.2603C43.5772 23.686 43.9807 23.9489 44.4095 23.9489C44.5322 23.9489 44.657 23.9273 44.7786 23.8823L46.0694 23.4014C46.3225 25.3865 46.4487 29.4289 43.8737 32.0042C43.71 32.1679 43.6045 32.381 43.5736 32.6107L41.5775 47.4301H40.7342V35.8728C40.7342 35.2887 40.2607 34.8155 39.6768 34.8155C39.093 34.8155 38.6195 35.2887 38.6195 35.8728V47.4301H28.421H18.2222V35.8728C18.2222 35.2887 17.7487 34.8155 17.1648 34.8155C16.581 34.8155 16.1075 35.2887 16.1075 35.8728V47.4301H15.2644L13.2683 32.6107C13.2372 32.3808 13.1317 32.1677 12.968 32.004ZM2.52606 72.3761C6.29086 63.1397 13.3558 51.9665 14.9146 49.5445H16.1073V50.848C15.8561 52.1213 13.296 65.0499 11.1373 74.2294C5.74146 74.5534 3.34931 73.0833 2.52606 72.3761ZM35.1157 77.2769L36.0523 56.5571C36.0787 55.9737 35.627 55.4795 35.0435 55.453C34.4607 55.4272 33.9659 55.8783 33.9395 56.4617L33.0623 75.8653H23.779L22.9018 56.4617C22.8754 55.8785 22.379 55.4298 21.7977 55.453C21.2143 55.4795 20.7628 55.9737 20.789 56.5571L21.7256 77.2767C18.3527 78.4089 14.3703 77.6825 12.5859 77.2469C14.9493 67.6844 18.1685 51.3251 18.2019 51.1551C18.2152 51.0881 18.2218 51.0196 18.2218 50.9512V49.5445H28.4205H38.6191V50.9512C38.6191 51.0196 38.6256 51.0879 38.639 51.1551C38.6724 51.3253 41.892 67.6861 44.2554 77.2481C42.4731 77.6857 38.4968 78.4138 35.1157 77.2769ZM45.7039 74.2296C43.5453 65.0504 40.9852 52.1211 40.734 50.8483V49.5448H41.9269C43.4856 51.9667 50.5506 63.1399 54.3154 72.3763C53.4924 73.083 51.1002 74.5534 45.7039 74.2296Z" fill="#000F08"/>
</svg>
